<svg xmlns="http://www.w3.org/2000/svg" xmlns:xlink="http://www.w3.org/1999/xlink" xmlns:serif="http://www.serif.com/" version="1.1" xml:space="preserve" style="fill-rule:evenodd;clip-rule:evenodd;stroke-linejoin:round;stroke-miterlimit:2;" viewBox="0 0 1595 263" preserveAspectRatio="xMidYMid meet" width="100%" height="100%"><style xmlns="">
      svg {
        display: block;
        max-width: 100%;
        max-height: 100%;
        margin: auto;
      }
    </style><style xmlns="">
      svg {
        display: block;
        max-width: 100%;
        max-height: 100%;
        margin: auto;
      }
    </style>
    <g transform="matrix(1,0,0,1,-21643.7,-3823.58)">
        <g>
            <g transform="matrix(4.16667,0,0,4.16667,21644.6,3952.88)">
                <path d="M0,17.201L6.258,17.201C6.356,17.201 6.439,17.274 6.456,17.37C7.539,23.559 11.674,26.191 18.356,26.191C24.579,26.191 28.728,23.684 28.728,18.843C28.728,14.608 25.789,12.62 16.886,11.064C6.6,9.162 1.328,6.051 1.328,-1.815C1.328,-9.508 7.983,-14.608 17.577,-14.608C27.342,-14.608 33.712,-9.855 34.751,-1.358C34.766,-1.235 34.669,-1.124 34.545,-1.124L28.121,-1.124C28.022,-1.124 27.939,-1.197 27.923,-1.295C27.084,-6.369 23.134,-8.99 17.577,-8.99C11.872,-8.99 8.156,-6.396 8.156,-2.161C8.156,1.988 10.836,3.89 19.565,5.273C29.852,7.002 35.73,10.372 35.73,18.152C35.73,26.45 28.555,31.809 18.182,31.809C7.808,31.809 0.751,26.791 -0.206,17.431C-0.219,17.309 -0.122,17.201 0,17.201" style="fill:rgb(157,29,33);fill-rule:nonzero;"/>
            </g>
            <g transform="matrix(4.16667,0,0,4.16667,21823.4,3824.43)">
                <path d="M0,61.395L0,0C0,-0.112 0.091,-0.204 0.204,-0.204L6.711,-0.204C6.824,-0.204 6.915,-0.112 6.915,0L6.915,23.582C6.915,23.791 7.187,23.862 7.295,23.683C9.961,19.281 14.592,16.219 21.264,16.219C31.809,16.219 36.65,22.702 36.65,32.902L36.65,61.395C36.65,61.508 36.559,61.599 36.446,61.599L30.025,61.599C29.913,61.599 29.821,61.508 29.821,61.395L29.821,34.544C29.821,26.592 26.71,22.183 19.449,22.183C11.929,22.183 6.915,27.629 6.915,36.446L6.915,61.395C6.915,61.508 6.824,61.599 6.711,61.599L0.204,61.599C0.091,61.599 0,61.508 0,61.395" style="fill:rgb(157,29,33);fill-rule:nonzero;"/>
            </g>
            <g transform="matrix(4.16667,0,0,4.16667,22143.1,4006.54)">
                <path d="M0,-8.557C0.121,-8.557 0.218,-8.665 0.206,-8.785C-0.546,-16.858 -4.86,-21.609 -12.652,-21.609C-20.532,-21.609 -25.356,-17.112 -26.369,-8.791C-26.383,-8.668 -26.287,-8.557 -26.163,-8.557L0,-8.557ZM-33.657,-3.457L-33.657,-5.099C-33.657,-18.324 -25.791,-27.487 -12.652,-27.487C1.374,-27.487 8.033,-17.893 7.495,-3.139C7.491,-3.029 7.399,-2.938 7.289,-2.938L-26.358,-2.938C-26.473,-2.938 -26.567,-2.84 -26.565,-2.724C-26.324,7.427 -21.15,13.053 -12.566,13.053C-5.626,13.053 -1.32,9.911 0.187,4.3C0.211,4.212 0.29,4.15 0.381,4.15L6.966,4.15C7.099,4.15 7.199,4.278 7.167,4.407C4.936,13.585 -2.118,18.93 -12.566,18.93C-25.964,18.93 -33.657,9.682 -33.657,-3.457" style="fill:rgb(157,29,33);fill-rule:nonzero;"/>
            </g>
            <g transform="matrix(4.16667,0,0,4.16667,22475.7,3890.37)">
                <path d="M0,46.95C-2.356,46.95 -3.55,45.696 -3.55,43.223C-3.55,41.503 -3.222,39.424 -2.487,36.483L1.931,17.223C3.634,9.793 3.884,6.379 2.823,5.046C2.456,4.585 1.908,4.361 1.148,4.361C-2.283,4.361 -7.804,8.612 -14.819,16.655C-14.842,16.682 -14.858,16.714 -14.866,16.748L-21.44,46.08C-21.461,46.175 -21.546,46.243 -21.643,46.243L-28.056,46.243C-28.189,46.243 -28.289,46.119 -28.259,45.989L-21.839,17.223C-20.422,10.792 -19.783,6.508 -20.974,5.026C-21.333,4.579 -21.872,4.361 -22.62,4.361C-27.077,4.361 -36.062,14.397 -38.766,17.541C-38.789,17.568 -38.802,17.597 -38.81,17.63L-45.12,46.08C-45.141,46.175 -45.225,46.243 -45.323,46.243L-51.826,46.243C-51.959,46.243 -52.058,46.121 -52.03,45.991L-44.458,10.156C-44.203,8.879 -43.93,7.435 -43.93,6.466C-43.93,5.426 -44.303,4.921 -45.071,4.921C-45.895,4.921 -47.15,5.499 -48.803,6.641L-51.362,8.377L-51.913,7.605L-51.853,7.542C-45.808,1.308 -42.133,0 -40.115,0C-38.48,0 -36.829,1.07 -36.829,3.462C-36.829,6.331 -37.943,11.401 -38.744,14.966C-38.768,15.073 -38.63,15.131 -38.559,15.048C-31.04,6.216 -25.266,0 -19.792,0C-15.56,0 -13.503,2.404 -13.503,7.35C-13.503,9.081 -13.759,11.132 -14.266,13.452C-14.289,13.558 -14.159,13.629 -14.089,13.545C-8.429,6.785 -1.927,0 3.71,0C8.121,0 10.265,2.404 10.265,7.35C10.265,9.309 9.689,13.042 8.761,17.092L4.255,37.061L4.192,37.35C3.921,38.605 3.55,40.323 3.55,41.456C3.55,42.246 3.887,42.614 4.612,42.614C5.517,42.614 7.04,42.015 9.138,40.835L11.693,39.375L12.244,40.145L12.176,40.208C5.676,46.133 2.483,46.95 0,46.95" style="fill:rgb(157,29,33);fill-rule:nonzero;"/>
            </g>
            <g transform="matrix(4.16667,0,0,4.16667,22691.7,3985.29)">
                <path d="M0,1.643L0,0C0,-10.372 -4.927,-16.509 -14.003,-16.509C-22.993,-16.509 -27.92,-10.372 -27.92,0L-27.92,1.643C-27.92,12.016 -22.993,18.153 -14.003,18.153C-4.927,18.153 0,12.016 0,1.643M-35.008,1.643L-35.008,0C-35.008,-13.57 -26.883,-22.387 -14.003,-22.387C-1.124,-22.387 7.087,-13.57 7.087,0L7.087,1.643C7.087,15.213 -1.124,24.03 -14.003,24.03C-26.883,24.03 -35.008,15.213 -35.008,1.643" style="fill:rgb(157,29,33);fill-rule:nonzero;"/>
            </g>
            <g transform="matrix(4.16667,0,0,4.16667,22794.8,3896.89)">
                <path d="M0,44.079L-16.7,0.145C-16.751,0.011 -16.653,-0.132 -16.51,-0.132L-9.602,-0.132C-9.516,-0.132 -9.439,-0.078 -9.41,0.003L3.746,36.328C3.811,36.508 4.066,36.507 4.13,36.327L17.03,0.004C17.059,-0.078 17.136,-0.132 17.222,-0.132L23.958,-0.132C24.101,-0.132 24.199,0.01 24.149,0.144L7.706,44.078C7.676,44.158 7.6,44.211 7.515,44.211L0.191,44.211C0.106,44.211 0.03,44.158 0,44.079" style="fill:rgb(157,29,33);fill-rule:nonzero;"/>
            </g>
            <g transform="matrix(4.16667,0,0,4.16667,23041.2,4006.54)">
                <path d="M0,-8.557C0.121,-8.557 0.218,-8.665 0.206,-8.785C-0.546,-16.858 -4.86,-21.609 -12.652,-21.609C-20.532,-21.609 -25.356,-17.112 -26.369,-8.791C-26.384,-8.668 -26.287,-8.557 -26.163,-8.557L0,-8.557ZM-33.657,-3.457L-33.657,-5.099C-33.657,-18.324 -25.791,-27.487 -12.652,-27.487C1.374,-27.487 8.033,-17.893 7.495,-3.139C7.491,-3.029 7.399,-2.938 7.289,-2.938L-26.358,-2.938C-26.473,-2.938 -26.567,-2.84 -26.565,-2.724C-26.324,7.427 -21.15,13.053 -12.566,13.053C-5.626,13.053 -1.32,9.911 0.187,4.3C0.211,4.212 0.29,4.15 0.381,4.15L6.966,4.15C7.099,4.15 7.199,4.278 7.167,4.407C4.936,13.585 -2.118,18.93 -12.566,18.93C-25.964,18.93 -33.657,9.682 -33.657,-3.457" style="fill:rgb(157,29,33);fill-rule:nonzero;"/>
            </g>
            <g transform="matrix(4.16667,0,0,4.16667,23089.3,3952.88)">
                <path d="M0,17.201L6.258,17.201C6.356,17.201 6.439,17.274 6.456,17.37C7.539,23.559 11.674,26.191 18.356,26.191C24.579,26.191 28.728,23.684 28.728,18.843C28.728,14.608 25.789,12.62 16.886,11.064C6.6,9.162 1.328,6.051 1.328,-1.815C1.328,-9.508 7.983,-14.608 17.577,-14.608C27.342,-14.608 33.712,-9.855 34.751,-1.358C34.766,-1.235 34.669,-1.124 34.545,-1.124L28.121,-1.124C28.022,-1.124 27.939,-1.197 27.923,-1.295C27.084,-6.369 23.134,-8.99 17.577,-8.99C11.872,-8.99 8.156,-6.396 8.156,-2.161C8.156,1.988 10.836,3.89 19.565,5.273C29.852,7.002 35.73,10.372 35.73,18.152C35.73,26.45 28.555,31.809 18.182,31.809C7.808,31.809 0.751,26.791 -0.206,17.431C-0.219,17.309 -0.122,17.201 0,17.201" style="fill:rgb(157,29,33);fill-rule:nonzero;"/>
            </g>
        </g>
    </g>
</svg>